<svg id="Capa_1" enable-background="new 0 0 511.758 511.758" viewBox="0 0 511.758 511.758" xmlns="http://www.w3.org/2000/svg"><g><g><path d="m172.549 35.232-.01-.01 31.746-18.333.01.01c31.761-18.408 75.616-15.91 123.857 11.941 96.37 55.642 175.214 192.208 175.214 303.482 0 55.632-19.708 94.835-51.47 113.172l-31.858 18.394-.01-.01z" fill="#60b7ff"/><path d="m296.289 451.848c96.353 55.632 175.189 10.116 175.191-101.147.002-111.262-78.834-247.81-175.191-303.44s-175.193-10.113-175.191 101.147c.002 111.261 78.837 247.809 175.191 303.44z" fill="#b3dafe"/><path d="m328.142 157.605 17.375-9.195-17.375-27.586-31.853-18.39-13.727 8.304 13.727 28.476 13.758 25.553z" fill="#ffd15b"/><path d="m264.436 341.508-16.846 12.741 16.846 24.039 31.852 18.391 19.671-11.257-19.671-25.524-15.926-23.694z" fill="#ffd15b"/><path d="m232.583 175.995-14.784-21.264-17.069 2.873-13.726 16.375 13.726 20.406 12.421 19.463 19.432-1.073 11.887-16.525z" fill="#fe7d43"/><path d="m232.583 249.555-14.784-21.263-17.069 2.873-13.726 16.374 13.726 20.406 12.421 19.463 19.432-1.072 11.887-16.525z" fill="#fe7d43"/><g fill="#ffd15b"><path d="m264.436 304.726-14.784-21.263-17.069 2.873-13.727 16.374 13.727 20.406 12.421 19.463 19.432-1.072 11.887-16.525z"/><path d="m264.436 231.165-14.784-21.263-17.069 2.873-13.726 16.374 13.726 20.406 12.421 19.463 19.432-1.072 11.887-16.525z"/><path d="m264.436 157.604-14.784-21.263-17.069 2.873-13.726 16.374 13.726 20.406 12.421 19.463 19.432-1.072 11.887-16.525z"/><path d="m296.289 139.214-14.784-21.263-17.069 2.873-13.727 16.374 13.727 20.406 12.421 19.463 19.432-1.072 11.887-16.525z"/><path d="m296.289 212.775-14.784-21.263-17.069 2.873-13.726 16.374 13.726 20.406 12.421 19.463 19.432-1.072 11.887-16.525z"/><path d="m296.289 286.336-14.784-21.263-17.069 2.873-13.726 16.374 13.726 20.406 12.421 19.463 19.432-1.073 11.887-16.524z"/><path d="m328.142 341.507-14.784-21.263-17.069 2.872-13.726 16.375 13.726 20.406 12.421 19.463 19.432-1.073 11.887-16.524z"/><path d="m328.142 267.946-14.784-21.263-17.069 2.873-13.727 16.374 13.727 20.406 12.421 19.463 19.432-1.073 11.887-16.524z"/><path d="m328.142 194.385-14.784-21.263-17.069 2.873-13.727 16.374 13.727 20.406 12.421 19.463 19.432-1.072 11.886-16.525z"/></g><path d="m359.994 175.995-14.784-21.263-17.068 2.873-13.727 16.374 13.727 20.406 12.421 19.463 19.431-1.072 11.887-16.525z" fill="#0ab69f"/><path d="m359.994 249.556-14.784-21.263-17.068 2.873-13.727 16.374 13.727 20.406 12.421 19.463 19.431-1.072 11.887-16.525z" fill="#0ab69f"/><path d="m391.847 304.727-14.784-21.263-17.069 2.873-13.726 16.374 13.726 20.406 12.421 19.463 19.432-1.073 11.887-16.524z" fill="#0ab69f"/><path d="m391.847 231.166-14.784-21.263-17.069 2.873-13.726 16.374 13.726 20.406 12.421 19.463 19.432-1.073 11.887-16.524z" fill="#0ab69f"/><path d="m423.7 286.337-14.784-21.263-17.069 2.872-13.726 16.375 13.726 20.406 12.421 19.463 19.432-1.073z" fill="#0ab69f"/><path d="m359.994 323.117-14.784-21.263-17.068 2.873-13.727 16.374 13.727 20.406 12.421 19.463 19.431-1.073 11.887-16.524z" fill="#0ab69f"/><path d="m359.994 396.678-14.784-21.263-17.068 2.873-13.727 16.374 13.727 20.406 31.852 18.39z" fill="#0ab69f"/><path d="m391.847 378.289-14.784-21.264-17.069 2.873-13.726 16.375 13.726 20.405 31.853 18.391z" fill="#0ab69f"/><path d="m423.699 359.899-14.784-21.263-17.069 2.873-13.726 16.374 13.726 20.406 31.853 18.39z" fill="#0ab69f"/><path d="m200.73 194.385-10.627-20.754-21.226 2.363v36.781l12.353 24.169 19.5-5.779 19.818-13.743z" fill="#fe7d43"/><path d="m264.436 120.824 14.678-11.461-14.678-25.32-31.853-18.39v36.781l15.926 24.527z" fill="#fe7d43"/><path d="m232.583 139.215 14.679-11.461-14.679-25.32-31.853-18.391v36.781l15.926 24.527z" fill="#fe7d43"/><path d="m200.73 157.605 14.679-11.461-14.679-25.32-31.853-18.39v36.78l15.927 24.527z" fill="#fe7d43"/><path d="m232.583 212.775-31.853-18.39v36.78l31.853 18.39z" fill="#fead8a"/><path d="m232.583 249.555v36.782l31.853 18.39v-36.781z" fill="#fead8a"/><path d="m232.583 139.214-31.853-18.39v36.78l31.853 18.391z" fill="#fead8a"/><path d="m296.289 286.336v36.782l31.852 18.39v-36.782z" fill="#fff0ad"/><path d="m264.436 120.824-31.853-18.39v36.78l31.853 18.391z" fill="#fead8a"/><path d="m328.141 267.946v36.78l31.853 18.391v-36.781z" fill="#fff0ad"/><path d="m264.436 304.727v36.781l31.852 18.39.001-36.78z" fill="#fff0ad"/><path d="m264.436 194.385-31.853-18.39v36.78l31.853 18.39z" fill="#fead8a"/><path d="m391.847 304.726v-36.78l-31.853-18.39v36.78z" fill="#5de1c4"/><path d="m264.436 231.165v36.781l31.853 18.39v-36.78z" fill="#fff0ad"/><path d="m359.994 249.556v-36.781l-31.853-18.39v36.781z" fill="#fff0ad"/><path d="m328.141 194.385.001-36.78-31.853-18.391v36.781z" fill="#fff0ad"/><path d="m296.289 212.775v36.781l31.852 18.39v-36.78z" fill="#fff0ad"/><path d="m296.289 175.995-31.853-18.39v36.78l31.853 18.39z" fill="#fff0ad"/><path d="m232.583 286.337-31.853-18.39v36.78l29.387 16.967-16.612-9.591 16.612 9.591 2.466 1.423z" fill="#fead8a"/><path d="m200.484 267.804.246.143z" fill="#fff0ad"/><path d="m232.583 323.117v36.781l31.853 18.39v-36.78z" fill="#fead8a"/><path d="m200.73 231.165-31.853-18.39v36.781l31.607 18.248.246.143z" fill="#fead8a"/><path d="m391.847 341.507 31.853 18.39v-36.78l-31.853-18.391z" fill="#5de1c4"/><path d="m391.847 341.507-31.853-18.39v36.781l31.853 18.391z" fill="#5de1c4"/><path d="m200.73 157.604-31.853-18.39v36.78l31.853 18.391z" fill="#fead8a"/><path d="m296.288 359.898v36.781l31.853 18.39v-36.781z" fill="#fff0ad"/><path d="m328.141 341.508v36.78l31.853 18.391v-36.781z" fill="#fff0ad"/><path d="m359.994 212.775 31.853 18.391v-36.781l-25.557-14.755 13.088 7.556-13.088-7.556-6.296-3.635z" fill="#5de1c4"/><path d="m359.994 175.995v-36.781l-31.852-18.39v36.781z" fill="#fff0ad"/><path d="m423.7 286.337v-36.781l-31.853-18.39v36.78z" fill="#5de1c4"/><path d="m296.289 139.214v-36.78l-31.853-18.391v36.781z" fill="#fff0ad"/><path d="m264.437 487.047-34.14 19.711-31.92-269.423 66.06-6.522z" fill="#60b7ff"/><path d="m224.463 253.891-216.071-131.486 34.139-19.71 221.906 128.118z" fill="#d8ecfe"/><path d="m230.297 506.758-221.905-128.118v-256.235l221.906 128.118z" fill="#b3dafe"/><path d="m68.125 176.603-42.664-24.632v49.269l18.403 30.998 24.261-6.41 17.668-22.248z" fill="#fe7d43"/><path d="m110.81 250.428-16.935-32.104-25.75 7.504-15.367 20.855 15.366 28.471 42.686 24.645z" fill="#fe7d43"/><path d="m110.81 250.428v-49.181l-42.685-24.644v49.225z" fill="#fead8a"/><path d="m25.461 201.24v49.283l42.663 24.631.001-49.326z" fill="#fead8a"/><path d="m170.543 235.734-42.663-24.632v49.27l18.402 30.998 24.261-6.411 17.669-22.247z" fill="#ffd15b"/><path d="m213.228 309.559-16.935-32.103-25.75 7.503-15.367 20.855 15.367 28.472 42.685 24.644z" fill="#ffd15b"/><path d="m213.228 309.559v-49.181l-42.685-24.644v49.225z" fill="#fff0ad"/><path d="m127.88 260.372v49.282l42.663 24.632v-49.327z" fill="#fff0ad"/><path d="m170.532 353.997-42.663-24.632v49.269l18.402 30.998 24.261-6.411 17.669-22.247z" fill="#fe7d43"/><path d="m213.217 427.821-16.935-32.103-25.75 7.503-15.367 20.856 15.367 28.471 42.685 24.645z" fill="#fe7d43"/><path d="m213.217 427.821v-49.18l-42.685-24.644v49.224z" fill="#fead8a"/><path d="m127.869 378.634v49.283l42.663 24.631v-49.327z" fill="#fead8a"/><path d="m68.114 294.843-42.664-24.632v49.27l18.403 30.998 24.261-6.411 17.668-22.247z" fill="#0ab69f"/><path d="m110.799 368.668-16.936-32.103-25.749 7.503-15.367 20.855 15.366 28.472 42.686 24.644z" fill="#0ab69f"/><path d="m110.799 368.668v-49.181l-42.685-24.644v49.225z" fill="#5de1c4"/><path d="m25.45 319.481v49.282l42.663 24.632.001-49.327z" fill="#5de1c4"/></g><g><g fill="#072f75"><path d="m113.81 201.247c0-1.072-.572-2.062-1.5-2.598l-85.349-49.276c-.928-.536-2.072-.536-3 0s-1.5 1.526-1.5 2.598v98.552c0 1.072.572 2.062 1.5 2.598l85.349 49.276c.464.268.982.402 1.5.402s1.036-.134 1.5-.402c.928-.536 1.5-1.526 1.5-2.598v-48.643c.105-.45.101-.912 0-1.351zm-6 43.996-36.674-21.136v-42.301l36.674 21.173zm-42.674-66.902v42.307l-36.674-21.136v-42.346zm-36.675 28.097 36.674 21.136v42.391l-36.674-21.173zm42.674 66.99v-42.397l36.674 21.136v42.435z"/><path d="m113.81 368.067v-48.558c0-1.072-.572-2.062-1.5-2.598l-85.349-49.276c-.928-.536-2.072-.536-3 0s-1.5 1.526-1.5 2.598v98.552c0 1.072.572 2.062 1.5 2.598l85.349 49.276c.464.268.982.402 1.5.402s1.036-.134 1.5-.402c.928-.536 1.5-1.526 1.5-2.598v-48.643c.104-.45.101-.912 0-1.351zm-6-4.562-36.674-21.135v-42.302l36.674 21.173zm-42.674-66.901v42.308l-36.675-21.136v-42.346zm-36.675 28.097 36.675 21.136v42.391l-36.674-21.174v-42.353zm42.674 66.99v-42.397l36.674 21.135v42.435z"/><path d="m214.728 257.78-85.348-49.276c-.929-.536-2.072-.536-3 0s-1.5 1.526-1.5 2.598v98.552c0 1.072.572 2.062 1.5 2.598l85.348 49.276c.464.268.982.402 1.5.402s1.036-.134 1.5-.402c.928-.536 1.5-1.526 1.5-2.598v-98.552c0-1.071-.572-2.062-1.5-2.598zm-4.5 46.594-36.674-21.136v-42.302l36.674 21.174zm-42.674-66.902v42.308l-36.674-21.136v-42.347zm-36.674 28.098 36.674 21.136v42.391l-36.674-21.174zm42.673 66.99v-42.397l36.674 21.136v42.435z"/><path d="m214.728 376.042-85.348-49.276c-.928-.536-2.072-.536-3 0s-1.5 1.526-1.5 2.598v98.552c0 1.072.572 2.062 1.5 2.598l85.348 49.276c.464.268.982.402 1.5.402s1.036-.134 1.5-.402c.928-.536 1.5-1.526 1.5-2.598v-98.552c0-1.071-.572-2.061-1.5-2.598zm-4.5 46.594-36.674-21.136v-42.302l36.674 21.174zm-42.674-66.901v42.308l-36.674-21.136v-42.346zm-36.674 28.097 36.674 21.136v42.391l-36.674-21.174zm42.673 66.99v-42.397l36.674 21.136v42.435z"/><path d="m330.651 24.51c-40.577-23.426-88.582-35.073-128.866-11.951l-31.746 18.333c-37.489 21.731-52.111 65.156-53.772 108.602l-71.236-41.129c-1.547-.894-3.453-.894-5 0l-34.139 19.71c-1.547.893-2.5 2.544-2.5 4.33v256.235c0 1.786.953 3.437 2.5 4.33l221.906 128.118c.773.447 1.637.67 2.5.67s1.727-.223 2.5-.67l34.139-19.71c1.547-.893 2.5-2.544 2.5-4.33v-46.854c8.042 5.921 16.204 11.28 24.352 15.985 28.197 16.28 55.533 24.497 80.338 24.497 17.394 0 33.546-4.044 47.861-12.182.188-.08.371-.171.551-.275l31.857-18.394c34.803-20.094 53.97-61.824 53.97-117.502 0-113.151-79.723-251.235-177.715-307.813zm-288.12 83.959 213.906 123.498-26.139 15.091-213.907-123.498zm250.758-4.303v29.852l-25.853-14.926v-29.852zm-89.559 21.854 25.853 14.926v29.852l-25.853-14.926zm31.853-18.39 25.853 14.926v29.852l-25.853-14.926zm121.412 70.097v29.852l-25.854-14.927v-29.852zm31.852 85.022-25.853-14.926v-29.852l25.853 14.926zm0 110.342-25.853-14.926v-29.853l25.853 14.926zm-31.852 18.391-25.854-14.926v-29.852l25.854 14.926zm-63.706-140.195v29.852l-23.852-13.771v-29.852zm-23.852 23.009 23.852 13.771v29.853l-23.852-13.771zm29.852 17.236 25.853 14.926v29.853l-25.853-14.926zm0-6.929v-29.852l25.853 14.926v29.852zm31.852-11.461 25.854 14.927v29.852l-25.854-14.927zm0-6.929v-29.852l25.854 14.927v29.852zm-6-3.464-25.853-14.926v-29.852l25.853 14.926zm-25.852-51.706v-29.852l25.853 14.926v29.852zm-6-3.464-25.853-14.926v-29.852l25.853 14.926zm0 6.928v29.852l-23.858-13.774c-.068-1.498-.805-2.88-1.995-3.772v-27.232zm-31.853 8.8-25.853-14.927v-27.19l25.853 14.926zm8.001 87.771 23.852 13.771v29.852l-23.852-13.771zm29.852 17.235 25.853 14.926v29.852l-25.853-14.926zm31.852 11.462v-29.853l25.854 14.927v29.853zm31.854-18.391v-29.852l25.853 14.926v29.852zm31.852-11.462 25.853 14.926v29.852l-25.853-14.926zm25.853 7.998-25.853-14.926v-29.852l25.853 14.926zm-31.853-18.39-25.853-14.926v-29.852l25.853 14.926zm-31.852-55.171-25.854-14.927v-29.852l25.854 14.927zm-31.854-55.171-25.853-14.926v-29.852l25.853 14.926zm-31.852-18.39-25.853-14.926v-29.852l25.853 14.926zm-31.853-11.462v29.852l-25.853-14.927v-29.851zm-31.853 18.39v27.19l-25.853-14.926v-27.19zm39.854 170.133 23.852 13.771v29.852l-23.852-13.771zm29.852 17.235 25.853 14.926v29.853l-25.853-14.926zm31.852 18.389 25.853 14.926v29.853l-25.853-14.926zm31.854-18.389 25.853 14.926v29.852l-25.853-14.925zm31.852-18.392 25.853 14.926v29.853l-25.853-14.926zm25.853-65.563-25.853-14.926v-29.852l25.853 14.926zm-31.853-55.17-25.853-14.926v-29.852l25.853 14.925zm-31.853-55.171-25.853-14.926v-29.852l25.853 14.926zm-31.853-18.39-25.853-14.926v-29.852l25.853 14.926zm-63.705-36.78-25.853-14.927v-29.852l25.854 14.927zm-31.853 18.39-25.853-14.926v-29.853l25.853 14.926zm-31.853 18.39-25.853-14.926v-29.852l25.853 14.926zm-25.853-7.998 25.853 14.926v27.19l-25.853-14.926zm-158.485-15.653 213.906 123.498v246.997l-213.906-123.499zm219.906 370.495v-246.997l26.139-15.092v246.997zm65.491-51.734c-9.835-5.678-19.705-12.359-29.352-19.866v-43.013l89.057 51.418c.464.268.982.402 1.5.402s1.036-.134 1.5-.402c.928-.536 1.5-1.526 1.5-2.598v-31.584l27.354 15.792c.928.536 2.072.536 3 0s1.5-1.526 1.5-2.598v-31.584l27.353 15.792c.928.536 2.072.536 3 0s1.5-1.526 1.5-2.598v-147.123c0-1.072-.571-2.062-1.5-2.598l-30.353-17.524v-35.048c0-1.072-.572-2.062-1.5-2.598l-30.354-17.524v-35.049c0-1.072-.572-2.062-1.5-2.598l-127.411-73.562c-.928-.536-2.072-.536-3 0s-1.5 1.526-1.5 2.598v31.584l-27.353-15.792c-.928-.536-2.071-.536-3 0-.928.536-1.5 1.526-1.5 2.598v31.584l-27.353-15.792c-.929-.536-2.072-.536-3 0s-1.5 1.526-1.5 2.598v65.703l-39.755-22.953c.71-50.309 18.054-87.771 48.938-105.602.004-.002.008-.005.013-.008 31.572-18.219 73.733-13.951 118.716 12.019 95.224 54.975 172.692 189.155 172.691 299.109-.001 51.941-17.384 90.586-48.948 108.819-.005.003-.01.005-.015.008-31.572 18.23-73.737 13.966-118.728-12.01zm155.123-9.166c14.737-22.181 22.567-52.066 22.568-87.651.001-113.138-79.711-251.203-177.691-307.77-30.809-17.787-60.597-25.949-87.169-24.283 30.998-15.251 71.231-10.188 114.031 14.522 95.235 54.987 172.715 189.186 172.715 299.152 0 49.423-15.738 86.809-44.454 106.03z"/></g></g></g><g/><g/><g/><g/><g/><g/><g/><g/><g/><g/><g/><g/><g/><g/><g/></svg>