<svg id="Layer_1" enable-background="new 0 0 500.151 500.151" height="512" viewBox="0 0 500.151 500.151" width="512" xmlns="http://www.w3.org/2000/svg"><g><g><circle cx="250.075" cy="245" fill="#c8effe" r="245"/></g><g><circle cx="250.075" cy="245" fill="#c8effe" r="245"/></g><path d="m170.07 446.441 5.476 45.25c1.526-.423 3.138-.423 4.665 0l29.366 8.137c5.564 1.542 11.066-2.643 11.066-8.417v-44.971h-50.573z" fill="#fe646f"/><g><path d="m177.394 446.441h-42.28v44.971c0 5.774 5.502 9.959 11.066 8.417l29.366-8.137c.605-.168 1.225-.25 1.847-.284v-44.967z" fill="#fe2aa8"/></g><g><g><path d="m454.576 257.402c-21.466 0-38.931-17.464-38.931-38.931 0-21.466 17.464-38.931 38.931-38.931s38.931 17.464 38.931 38.931-17.464 38.931-38.931 38.931zm0-50.861c-6.579 0-11.931 5.352-11.931 11.931s5.352 11.931 11.931 11.931 11.931-5.352 11.931-11.931-5.352-11.931-11.931-11.931z" fill="#fed402"/></g><g><path d="m454.576 110.058c-43.843-66.309-119.057-110.058-204.501-110.058-2.269 0-4.532.031-6.786.092l-74.872 269.1 74.872 178.75h113.009c26.609-18.036 80.115-71.026 97.852-97.852l.426-92.688-11.931-38.931 11.931-38.931z" fill="#af66da"/><path d="m118.684 38.185v409.758h124.606v-447.845c-45.778 1.245-88.418 15.048-124.606 38.087z" fill="#4f66d0"/><path d="m73.053 75.643-27.478 149.549v193.97c0 15.895 12.885 28.781 28.78 28.781h44.329v-409.758c-16.695 10.628-32.012 23.224-45.631 37.458z" fill="#544f56"/></g><g><path d="m243.289 113.01v24.858h90.405c4.816 0 8.721-3.904 8.721-8.721v-16.137z" fill="#4f66d0"/></g><g><path d="m185.563 113.01v16.137c0 4.816 3.904 8.721 8.721 8.721h49.006v-24.858z" fill="#544f56"/></g><g><path d="m333.695 123.867h-90.405v-44.051h90.405c4.816 0 8.721 3.904 8.721 8.721v26.61c-.001 4.816-3.905 8.72-8.721 8.72z" fill="#fff"/></g><g><path d="m243.289 123.867h-49.006c-4.816 0-8.721-3.904-8.721-8.721v-26.61c0-4.816 3.904-8.721 8.721-8.721h49.006z" fill="#c8effe"/></g><g><path d="m441.575 257.402h-36.14c-8.286 0-15.002-6.717-15.002-15.002v-47.857c0-8.286 6.717-15.002 15.002-15.002h36.14z" fill="#4f66d0"/></g><g><path d="m454.576 257.402h-36.14c-8.286 0-15.002-6.717-15.002-15.002v-47.857c0-8.286 6.717-15.002 15.002-15.002h36.14z" fill="#fee903"/></g></g><path d="m428.587 435.731h-60.078c0-40.554 32.876-73.43 73.43-73.43v60.078c0 7.374-5.978 13.352-13.352 13.352z" fill="#fee903"/><g><path d="m432.15 375.343v50.6h-50.6c7.337-24.164 26.437-43.263 50.6-50.6m22-25.253c-54.042 0-97.852 43.81-97.852 97.852h80.059c9.827 0 17.793-7.966 17.793-17.793z" fill="#fed402"/></g><path d="m79.825 75.638h-6.778c-10.149 10.606-19.345 22.129-27.472 34.421v27.354l18.989 13.002 27.06-13.002v-49.976c0-6.517-5.283-11.799-11.799-11.799z" fill="#acd980"/><path d="m45.575 137.413v87.779h34.25c6.517 0 11.799-5.283 11.799-11.799v-75.98z" fill="#0ed290"/></g></svg>