<svg id="Capa_1" enable-background="new 0 0 512.001 512.001" viewBox="0 0 512.001 512.001" xmlns="http://www.w3.org/2000/svg"><g><g><path d="m475.626 165.429v18.064l-15.688 9.057-33.384-2.073 19.058-23.082z" fill="#feb237"/><path d="m197.76 224.636 309.237-4.862-.003 36.231-282.368 163.025-89.62-110.5z" fill="#008b81"/><path d="m5.001 292.23.003-36.231 192.756-31.363 26.866 158.166v36.228z" fill="#0ab69f"/><path d="m5.001 256.001 282.375-163.03 219.625 126.801-248.747 143.614-33.628 19.416z" fill="#5de1c4"/><path d="m256.088 198.722-26.378-15.229 26.378-15.229 26.378 15.229z" fill="#ffd15b"/><path d="m350.213 253.116-26.378-15.23 26.378-15.229 26.378 15.229z" fill="#ffd15b"/><path d="m161.963 253.066-26.378-15.229c7.361-4.25 19.017-10.979 26.378-15.229 7.361 4.25 19.017 10.979 26.378 15.229z" fill="#ffd15b"/><path d="m256.088 307.459-26.378-15.23 26.378-15.229 26.378 15.229z" fill="#ffd15b"/><g fill="#0ab69f"><ellipse cx="67.751" cy="256.001" rx="15.15" ry="8.747" transform="matrix(1 -.005 .005 1 -1.377 .368)"/><ellipse cx="224.626" cy="346.572" rx="15.15" ry="8.747" transform="matrix(1 -.005 .005 1 -1.862 1.214)"/><ellipse cx="287.376" cy="129.15" rx="15.15" ry="8.747" transform="matrix(1 -.005 .005 1 -.691 1.549)"/><ellipse cx="444.251" cy="219.721" rx="15.15" ry="8.747" transform="matrix(1 -.005 .005 1 -1.176 2.394)"/></g><path d="m318.751 147.315 62.75-36.229 94.125 54.343-62.75 36.229z" fill="#ffd15b"/></g><g fill="#072f75"><path d="m509.444 215.41-39.55-22.835 8.231-4.752c1.547-.893 2.5-2.544 2.5-4.33v-18.064c0-1.786-.953-3.437-2.5-4.33l-94.125-54.343c-1.547-.894-3.453-.894-5 0l-28.875 16.671-60.25-34.785c-1.547-.894-3.453-.894-5 0l-282.32 162.997c-1.633.914-2.627 2.678-2.551 4.557l-.003 36.033c0 1.787.953 3.438 2.5 4.331l219.571 126.769c1.569.934 3.537.934 5.107 0l282.315-162.995c1.547-.893 2.5-2.543 2.5-4.33l.003-36.037c.076-1.895-.935-3.653-2.553-4.557zm-49.549-28.608-9.643-5.568 20.374-11.763v11.136zm-48.744-52.824-52.75 30.456-12.825-7.404 52.75-30.455zm6 3.464 12.825 7.405-52.75 30.456-12.825-7.405zm18.825 10.869 12.825 7.405-52.75 30.456-12.825-7.405zm18.825 10.868 10.825 6.25-52.75 30.456-10.825-6.25zm-73.3-42.32 10.825 6.25-52.75 30.455-10.825-6.25zm-94.125-18.114 52.75 30.455-23.875 13.784c-1.547.893-2.5 2.544-2.5 4.33s.953 3.437 2.5 4.33l94.125 54.343c.773.447 1.637.67 2.5.67s1.727-.223 2.5-.67l28.875-16.671 52.75 30.456-272.375 157.256-209.625-121.027zm-277.373 165.917 209.623 121.026v24.682l-209.625-121.027zm219.623 145.708v-24.682l272.371-157.254-.002 24.683z"/><path d="m241.9 158.92 14.188-8.191 14.188 8.191c.473.273.988.402 1.497.402 1.037 0 2.045-.538 2.601-1.5.828-1.435.337-3.27-1.098-4.098l-15.688-9.057c-.928-.536-2.072-.536-3 0l-15.688 9.057c-1.435.829-1.926 2.663-1.098 4.098.829 1.435 2.665 1.926 4.098 1.098z"/><path d="m300.552 172.936c-.828 1.435-.337 3.27 1.098 4.098l11.188 6.459-11.188 6.459c-1.435.829-1.926 2.663-1.098 4.098.556.962 1.564 1.5 2.601 1.5.509 0 1.025-.13 1.497-.402l15.688-9.057c.928-.536 1.5-1.526 1.5-2.598s-.572-2.062-1.5-2.598l-15.688-9.057c-1.435-.829-3.269-.336-4.098 1.098z"/><path d="m238.9 213.263 15.688 9.057c.464.268.982.402 1.5.402s1.036-.134 1.5-.402l15.688-9.057c1.435-.829 1.926-2.663 1.098-4.098-.828-1.434-2.662-1.926-4.098-1.098l-14.188 8.191-14.188-8.191c-1.435-.829-3.27-.336-4.098 1.098-.828 1.435-.337 3.269 1.098 4.098z"/><path d="m191.838 186.091 15.688 9.057c.473.273.988.402 1.497.402 1.037 0 2.045-.538 2.601-1.5.828-1.435.337-3.27-1.098-4.098l-11.188-6.459 11.188-6.459c1.435-.829 1.926-2.663 1.098-4.098-.828-1.434-2.664-1.926-4.098-1.098l-15.688 9.057c-.928.536-1.5 1.526-1.5 2.598s.572 2.062 1.5 2.598z"/><path d="m228.21 186.091 26.378 15.229c.464.268.982.402 1.5.402s1.036-.134 1.5-.402l26.378-15.229c.928-.536 1.5-1.526 1.5-2.598s-.572-2.062-1.5-2.598l-26.378-15.229c-.928-.536-2.072-.536-3 0l-26.378 15.229c-.928.536-1.5 1.526-1.5 2.598s.572 2.062 1.5 2.598zm27.878-14.363 20.378 11.765-20.378 11.765-20.378-11.765z"/><path d="m320.835 237.886c0 1.072.572 2.062 1.5 2.598l26.378 15.229c.464.268.982.402 1.5.402s1.036-.134 1.5-.402l26.378-15.229c.928-.536 1.5-1.526 1.5-2.598s-.572-2.062-1.5-2.598l-26.378-15.229c-.929-.536-2.072-.536-3 0l-26.378 15.229c-.928.536-1.5 1.526-1.5 2.598zm29.378-11.765 20.378 11.765-20.378 11.766-20.378-11.766z"/><path d="m335.938 213.313 14.188-8.191 14.188 8.191c.473.273.988.402 1.497.402 1.037 0 2.045-.538 2.601-1.5.828-1.435.337-3.27-1.098-4.098l-15.688-9.057c-.928-.536-2.072-.536-3 0l-15.688 9.057c-1.435.829-1.926 2.663-1.098 4.098.829 1.435 2.664 1.927 4.098 1.098z"/><path d="m394.59 248.444c.556.962 1.564 1.5 2.601 1.5.509 0 1.025-.13 1.497-.402l15.688-9.057c.928-.536 1.5-1.526 1.5-2.598s-.572-2.062-1.5-2.598l-15.688-9.057c-1.436-.829-3.27-.336-4.098 1.098-.828 1.435-.337 3.27 1.098 4.098l11.188 6.459-11.188 6.459c-1.435.828-1.926 2.663-1.098 4.098z"/><path d="m364.313 262.46-14.188 8.191-14.188-8.191c-1.435-.828-3.27-.335-4.098 1.098-.828 1.435-.337 3.27 1.098 4.098l15.688 9.057c.464.268.982.402 1.5.402s1.036-.134 1.5-.402l15.688-9.057c1.435-.829 1.926-2.663 1.098-4.098-.827-1.433-2.662-1.924-4.098-1.098z"/><path d="m303.06 249.944c1.037 0 2.045-.538 2.601-1.5.828-1.435.337-3.27-1.098-4.098l-11.188-6.459 11.188-6.459c1.435-.829 1.926-2.663 1.098-4.098s-2.662-1.925-4.098-1.098l-15.688 9.057c-.928.536-1.5 1.526-1.5 2.598s.572 2.062 1.5 2.598l15.688 9.057c.473.273.988.402 1.497.402z"/><path d="m147.775 213.263 14.188-8.191 14.188 8.191c.473.273.988.402 1.497.402 1.037 0 2.045-.538 2.601-1.5.828-1.435.337-3.27-1.098-4.098l-15.688-9.057c-.928-.536-2.072-.536-3 0l-15.688 9.057c-1.435.829-1.926 2.663-1.098 4.098.828 1.434 2.664 1.926 4.098 1.098z"/><path d="m206.427 227.279c-.828 1.435-.337 3.27 1.098 4.098l11.188 6.459-11.188 6.459c-1.435.829-1.926 2.663-1.098 4.098.556.962 1.564 1.5 2.601 1.5.509 0 1.025-.13 1.497-.402l15.688-9.057c.928-.536 1.5-1.526 1.5-2.598s-.572-2.062-1.5-2.598l-15.688-9.058c-1.434-.826-3.269-.336-4.098 1.099z"/><path d="m176.15 262.41-14.188 8.191-14.188-8.191c-1.436-.828-3.27-.336-4.098 1.098-.828 1.435-.337 3.27 1.098 4.098l15.688 9.057c.464.268.982.402 1.5.402s1.036-.134 1.5-.402l15.688-9.057c1.435-.829 1.926-2.663 1.098-4.098-.827-1.434-2.663-1.925-4.098-1.098z"/><path d="m97.713 240.434 15.688 9.057c.473.273.988.402 1.497.402 1.037 0 2.045-.538 2.601-1.5.828-1.435.337-3.27-1.098-4.098l-11.188-6.459 11.188-6.459c1.435-.829 1.926-2.663 1.098-4.098-.828-1.434-2.663-1.925-4.098-1.098l-15.688 9.057c-.928.536-1.5 1.526-1.5 2.598s.572 2.062 1.5 2.598z"/><path d="m134.085 240.434 26.378 15.229c.464.268.982.402 1.5.402s1.036-.134 1.5-.402l26.378-15.229c.928-.536 1.5-1.526 1.5-2.598s-.572-2.062-1.5-2.598l-26.378-15.229c-.928-.536-2.072-.536-3 0l-26.378 15.229c-.928.536-1.5 1.526-1.5 2.598s.572 2.063 1.5 2.598zm27.878-14.363 20.378 11.765-20.378 11.765-20.378-11.765z"/><path d="m283.966 289.631-26.378-15.229c-.928-.536-2.072-.536-3 0l-26.378 15.229c-.928.536-1.5 1.526-1.5 2.598s.572 2.062 1.5 2.598l26.378 15.229c.464.268.982.402 1.5.402s1.036-.134 1.5-.402l26.378-15.229c.928-.536 1.5-1.526 1.5-2.598s-.572-2.062-1.5-2.598zm-22.783 11.422-5.095 2.941-20.377-11.765 20.377-11.765 20.378 11.765z"/><path d="m237.715 266.558c.829 1.435 2.665 1.927 4.098 1.098l14.188-8.191 14.188 8.191c.473.273.988.402 1.497.402 1.037 0 2.045-.538 2.601-1.5.828-1.435.337-3.27-1.098-4.098l-15.688-9.057c-.928-.536-2.072-.536-3 0l-15.688 9.057c-1.435.828-1.926 2.663-1.098 4.098z"/><path d="m320.251 289.632-15.688-9.058c-1.435-.828-3.27-.336-4.098 1.098-.828 1.435-.337 3.27 1.098 4.098l11.188 6.459-11.188 6.459c-1.435.829-1.926 2.663-1.098 4.098.556.962 1.564 1.5 2.601 1.5.509 0 1.025-.13 1.497-.402l15.688-9.057c.928-.536 1.5-1.526 1.5-2.598s-.572-2.061-1.5-2.597z"/><path d="m270.188 316.803-14.188 8.191-14.188-8.191c-1.435-.829-3.27-.336-4.098 1.098-.828 1.435-.337 3.27 1.098 4.098l15.688 9.057c.464.268.982.402 1.5.402s1.036-.134 1.5-.402l15.688-9.057c1.435-.829 1.926-2.663 1.098-4.098-.827-1.434-2.662-1.925-4.098-1.098z"/><path d="m208.935 304.287c1.037 0 2.045-.538 2.601-1.5.828-1.435.337-3.27-1.098-4.098l-11.188-6.459 11.188-6.459c1.435-.829 1.926-2.663 1.098-4.098-.828-1.434-2.662-1.925-4.098-1.098l-15.688 9.057c-.928.536-1.5 1.526-1.5 2.598s.572 2.062 1.5 2.598l15.688 9.057c.473.273.988.402 1.497.402z"/><path d="m55.504 264.803c3.403 1.964 7.774 2.946 12.153 2.946 4.409 0 8.827-.996 12.272-2.984 3.794-2.191 5.971-5.405 5.971-8.819 0-3.443-2.097-6.549-5.904-8.748-6.829-3.942-17.558-3.926-24.425.039-3.794 2.19-5.971 5.405-5.971 8.818.001 3.443 2.097 6.55 5.904 8.748zm3.067-12.37c2.518-1.454 5.901-2.182 9.275-2.182 3.342 0 6.674.714 9.15 2.144 1.846 1.065 2.904 2.36 2.904 3.552 0 1.212-1.083 2.532-2.971 3.622-5.012 2.894-13.45 2.911-18.426.038-1.846-1.065-2.904-2.36-2.904-3.551.002-1.212 1.084-2.533 2.972-3.623z"/><path d="m236.872 337.77c-6.83-3.943-17.559-3.926-24.425.038-3.794 2.191-5.971 5.405-5.971 8.819 0 3.443 2.097 6.549 5.904 8.748 3.403 1.965 7.773 2.946 12.153 2.946 4.409 0 8.828-.996 12.273-2.985 3.794-2.191 5.971-5.405 5.971-8.818-.002-3.443-2.098-6.55-5.905-8.748zm-3.067 12.369c-5.012 2.894-13.451 2.911-18.426.039-1.845-1.065-2.904-2.36-2.904-3.551 0-1.212 1.083-2.533 2.971-3.623 5.012-2.895 13.45-2.912 18.425-.038 1.846 1.065 2.904 2.36 2.904 3.551.001 1.212-1.082 2.533-2.97 3.622z"/><path d="m275.129 137.952c3.403 1.964 7.774 2.946 12.153 2.946 4.409 0 8.827-.996 12.272-2.984 3.794-2.191 5.971-5.405 5.971-8.819 0-3.443-2.097-6.549-5.904-8.748-6.83-3.943-17.559-3.926-24.425.039-3.794 2.19-5.971 5.405-5.971 8.818.001 3.444 2.097 6.551 5.904 8.748zm3.067-12.369c2.518-1.454 5.901-2.182 9.275-2.182 3.342 0 6.674.714 9.15 2.144 1.846 1.065 2.904 2.36 2.904 3.552 0 1.212-1.083 2.532-2.971 3.622-5.012 2.893-13.45 2.91-18.426.038-1.846-1.065-2.904-2.36-2.904-3.551.002-1.213 1.084-2.533 2.972-3.623z"/><path d="m432.004 228.524c3.403 1.965 7.773 2.946 12.153 2.946 4.409 0 8.828-.996 12.273-2.985 3.794-2.191 5.971-5.405 5.971-8.818 0-3.443-2.097-6.55-5.904-8.748-6.83-3.943-17.558-3.926-24.425.038-3.794 2.191-5.971 5.405-5.971 8.819 0 3.443 2.096 6.55 5.903 8.748zm3.067-12.37c5.012-2.895 13.45-2.912 18.425-.038 1.846 1.065 2.904 2.36 2.904 3.551 0 1.212-1.083 2.532-2.971 3.622-5.012 2.894-13.451 2.911-18.426.039-1.845-1.065-2.904-2.36-2.904-3.551.002-1.213 1.084-2.534 2.972-3.623z"/></g></g><g/><g/><g/><g/><g/><g/><g/><g/><g/><g/><g/><g/><g/><g/><g/></svg>