<svg id="Capa_1" enable-background="new 0 0 512.105 512.105" viewBox="0 0 512.105 512.105" xmlns="http://www.w3.org/2000/svg"><g><g><path d="m156.253 36.827-.011-.011 33.434-19.308.011.011c33.45-19.388 79.636-16.757 130.442 12.576 101.494 58.602 184.531 202.433 184.531 319.625 0 58.591-20.756 99.88-54.207 119.192l-33.552 19.372-.011-.01z" fill="#60b7ff"/><path d="m286.572 475.632c101.492 58.598 184.532 10.655 184.534-106.541s-83.039-261.025-184.534-319.622-184.536-10.653-184.534 106.541 83.042 261.024 184.534 319.622z" fill="#b3dafe"/><path d="m320.127 165.699 18.302-9.686-18.302-29.056-33.551-19.371-14.459 8.747 14.459 29.995 14.492 26.916z" fill="#ffd15b"/><path d="m253.024 359.41-17.745 13.42 17.745 25.322 33.551 19.371 20.72-11.858-20.72-26.884-16.775-24.958z" fill="#ffd15b"/><path d="m219.472 185.069-15.572-22.397-17.979 3.026-14.459 17.248 14.459 21.494 13.083 20.501 20.468-1.13 12.521-17.406z" fill="#fe7d43"/><path d="m219.472 262.553-15.572-22.397-17.979 3.026-14.459 17.248 14.459 21.494 13.083 20.501 20.468-1.13 12.521-17.406z" fill="#fe7d43"/><g fill="#ffd15b"><path d="m253.024 320.666-15.573-22.397-17.979 3.026-14.458 17.248 14.458 21.494 13.084 20.501 20.468-1.13 12.521-17.406z"/><path d="m253.024 243.182-15.572-22.397-17.98 3.026-14.458 17.248 14.458 21.494 13.084 20.501 20.468-1.13 12.521-17.406z"/><path d="m253.024 165.698-15.572-22.397-17.979 3.026-14.459 17.248 14.459 21.494 13.083 20.501 20.468-1.13 12.521-17.406z"/><path d="m286.576 146.328-15.573-22.397-17.979 3.026-14.458 17.247 14.458 21.494 13.084 20.501 20.468-1.129 12.52-17.406z"/><path d="m286.576 223.812-15.573-22.397-17.979 3.025-14.458 17.248 14.458 21.494 13.084 20.501 20.468-1.129 12.52-17.406z"/><path d="m286.576 301.296-15.573-22.398-17.979 3.026-14.458 17.248 14.458 21.494 13.084 20.501 20.468-1.13 12.521-17.406z"/><path d="m320.127 359.409-15.572-22.397-17.979 3.025-14.459 17.248 14.459 21.494 13.083 20.501 20.468-1.129 12.521-17.406z"/><path d="m320.127 281.925-15.572-22.397-17.979 3.026-14.459 17.247 14.459 21.495 13.083 20.501 20.468-1.13 12.521-17.406z"/><path d="m320.127 204.441-15.572-22.397-17.979 3.026-14.459 17.247 14.459 21.495 13.083 20.501 20.468-1.13 12.521-17.406z"/></g><path d="m353.679 185.07-15.573-22.397-17.979 3.026-14.458 17.248 14.458 21.494 13.084 20.501 20.468-1.13 12.521-17.406z" fill="#0ab69f"/><path d="m353.679 262.554-15.573-22.397-17.979 3.026-14.458 17.248 14.458 21.494 13.084 20.501 20.468-1.13 12.521-17.406z" fill="#0ab69f"/><path d="m387.23 320.667-15.572-22.397-17.979 3.026-14.459 17.248 14.459 21.494 13.083 20.501 20.468-1.13 12.521-17.406z" fill="#0ab69f"/><path d="m387.23 243.183-15.572-22.397-17.979 3.026-14.459 17.248 14.459 21.494 13.083 20.501 20.468-1.13 12.521-17.406z" fill="#0ab69f"/><path d="m420.782 301.296-15.573-22.397-17.979 3.026-14.458 17.248 14.458 21.494 13.084 20.501 20.468-1.13z" fill="#0ab69f"/><path d="m353.679 340.038-15.573-22.397-17.979 3.026-14.458 17.248 14.458 21.494 13.084 20.501 20.468-1.13 12.521-17.406z" fill="#0ab69f"/><path d="m353.679 417.522-15.573-22.397-17.979 3.026-14.458 17.248 14.458 21.494 33.552 19.371z" fill="#0ab69f"/><path d="m387.23 398.152-15.572-22.397-17.98 3.026-14.458 17.247 14.458 21.495 33.552 19.371z" fill="#0ab69f"/><path d="m420.781 378.782-15.572-22.397-17.979 3.025-14.459 17.248 14.459 21.494 33.551 19.372z" fill="#0ab69f"/><path d="m185.921 204.44-11.194-21.861-22.358 2.49v38.742l13.011 25.458 20.541-6.087 20.875-14.476z" fill="#fe7d43"/><path d="m253.024 126.957 15.461-12.072-15.461-26.67-33.552-19.372v38.742l16.776 25.836z" fill="#fe7d43"/><path d="m219.472 146.328 15.462-12.072-15.461-26.67-33.552-19.371v38.742l16.775 25.835z" fill="#fe7d43"/><path d="m185.921 165.699 15.461-12.072-15.461-26.67-33.552-19.372v38.743l16.776 25.835z" fill="#fe7d43"/><path d="m219.472 223.811-33.551-19.371v38.742l33.551 19.371z" fill="#fead8a"/><path d="m219.472 262.553v38.743l33.552 19.371v-38.743z" fill="#fead8a"/><path d="m219.472 146.328-33.551-19.372v38.742l33.551 19.371z" fill="#fead8a"/><path d="m286.575 301.296v38.743l33.552 19.371v-38.743z" fill="#fff0ad"/><path d="m253.024 126.957-33.552-19.372v38.743l33.552 19.371z" fill="#fead8a"/><path d="m320.127 281.925v38.742l33.551 19.371v-38.742z" fill="#fff0ad"/><path d="m253.024 320.667v38.743l33.551 19.371v-38.742z" fill="#fff0ad"/><path d="m253.024 204.441-33.552-19.372v38.742l33.552 19.371z" fill="#fead8a"/><path d="m387.23 320.667v-38.742l-33.552-19.371v38.742z" fill="#5de1c4"/><path d="m253.024 243.182v38.742l33.551 19.372.001-38.742z" fill="#fff0ad"/><path d="m353.678 262.554v-38.742l-33.551-19.371v38.742z" fill="#fff0ad"/><path d="m320.127 204.441v-38.742l-33.551-19.371v38.742z" fill="#fff0ad"/><path d="m286.576 223.812v38.742l33.551 19.371v-38.742z" fill="#fff0ad"/><path d="m286.576 185.07-33.552-19.371v38.742l33.552 19.371z" fill="#fff0ad"/><path d="m219.472 301.296-33.551-19.371v38.742l30.954 17.872-17.498-10.103 17.498 10.103 2.597 1.499z" fill="#fead8a"/><path d="m185.661 281.776.26.149z" fill="#fff0ad"/><path d="m219.472 340.038v38.743l33.552 19.371v-38.742z" fill="#fead8a"/><path d="m185.921 243.182-33.552-19.371v38.743l33.292 19.222.26.149z" fill="#fead8a"/><path d="m387.23 359.409 33.552 19.371v-38.742l-33.552-19.371z" fill="#5de1c4"/><path d="m387.23 359.409-33.552-19.371v38.743l33.552 19.371z" fill="#5de1c4"/><path d="m185.921 165.698-33.552-19.371v38.742l33.552 19.371z" fill="#fead8a"/><path d="m286.575 378.781v38.742l33.552 19.371v-38.742z" fill="#fff0ad"/><path d="m320.127 359.41v38.742l33.551 19.371v-38.742z" fill="#fff0ad"/><path d="m353.678 223.812 33.552 19.371v-38.742l-26.92-15.543 13.786 7.96-13.786-7.96-6.632-3.828z" fill="#5de1c4"/><path d="m353.678 185.07v-38.742l-33.551-19.371v38.742z" fill="#fff0ad"/><path d="m420.782 301.296v-38.742l-33.552-19.371v38.742z" fill="#5de1c4"/><path d="m286.576 146.328v-38.742l-33.552-19.371v38.742z" fill="#fff0ad"/><path d="m155.016 392.897v-36.039l-50.105-17.076 18.383 71.437 15.87 11.491z" fill="#feb237"/><path d="m162.074 337.742 7.873 13.635 31.722-18.322c17.257-9.967 27.967-31.271 27.967-61.508 0-60.48-42.858-134.709-95.24-164.954-26.194-15.124-50.006-16.498-67.266-6.529l-31.722 18.322 7.875 13.637z" fill="#ffe177"/><path d="m123.294 411.219-5.992 94.5 31.722-18.322c3.702-2.139 5.99-6.709 5.99-13.213l.001-81.286z" fill="#0055a3"/><path d="m197.915 289.874c0-60.483-42.858-134.714-95.24-164.959s-95.235-5.5-95.229 54.988c.005 52.319 32.068 114.918 74.62 150.441v57.072l20.593 49.006 20.636-25.203v-57.07c42.555 13.62 74.62-11.957 74.62-64.275z" fill="#fff0ad"/><path d="m82.064 468.702c0 13.064 9.229 28.983 20.614 35.557 11.385 6.573 20.614 1.311 20.614-11.753l.001-81.286-41.229-23.803z" fill="#0573ce"/><path d="m72.234 143.667c-21.777-2.802-36.519 13.229-35.946 44.086.802 43.205 31.334 99.761 67.848 125.681 27.822 19.75 51.411 16.242 60.711-5.659z" fill="#ffd15b"/><path d="m169.073 282.014c-.799-43.2-31.33-99.757-67.848-125.681-10.436-7.409-20.277-11.545-28.991-12.666-2.905 6.842-4.415 15.479-4.224 25.764.802 43.205 31.334 99.761 67.848 125.681 10.435 7.408 20.275 11.543 28.989 12.664 2.905-6.843 4.416-15.479 4.226-25.762z" fill="#60b7ff"/></g><g fill="#072f75"><path d="m137.864 331.449c5.735 0 11.084-1.261 15.907-3.809 13.505-7.134 20.715-23.37 20.301-45.72-.826-44.7-32.207-102.868-69.952-129.665-19.732-14.009-38.392-17.607-52.537-10.134-13.501 7.132-20.708 23.371-20.293 45.724.83 44.706 32.21 102.873 69.953 129.665 13.001 9.23 25.535 13.939 36.621 13.939zm26.21-49.343c.158 8.537-.905 15.919-3.09 21.907-7.324-1.751-15.321-5.621-23.39-11.349-35.925-25.503-65.795-80.811-66.584-123.29-.144-7.734.693-14.582 2.491-20.423 7.602 1.384 16.083 5.249 24.83 11.458 35.473 25.189 64.968 79.781 65.743 121.697zm-122.786-94.446c-.341-18.385 4.974-31.418 14.966-36.696 3.283-1.734 7.04-2.588 11.154-2.588h.009c-1.744 6.18-2.552 13.252-2.406 21.11.82 44.149 31.823 101.603 69.111 128.071 8.392 5.956 16.534 9.978 24.287 12.006-2.393 4.108-5.514 7.231-9.309 9.236-10.482 5.538-25.815 2.097-42.069-9.442-35.473-25.181-64.965-79.774-65.743-121.697z"/><path d="m322.629 25.765c-50.608-29.218-98.574-33.745-135.111-12.767-.116.056-.23.116-.343.181l-33.434 19.308c-.048.028-.096.057-.144.086-20.663 11.981-36.523 31.929-46.03 57.838-15.902-3.539-30.605-1.8-42.939 5.323l-31.722 18.322c-.037.021-.073.044-.11.065-19.574 11.373-30.353 34.729-30.351 65.782.002 25.835 7.774 55.581 21.884 83.758 13.48 26.919 32.15 51.331 52.736 69.001v54.704.086l-.001 81.25c0 14.883 10.153 32.403 23.114 39.887 4.049 2.338 8.044 3.517 11.754 3.517 2.645 0 5.416-.644 7.87-2.057h.001l31.722-18.322c5.475-3.163 8.49-9.393 8.49-17.543l.001-81.224c.001-.045.001-.09 0-.135v-31.977c1.268-.34 2.517-.726 3.745-1.155 33.692 52.233 76.326 94.874 120.311 120.27 29.656 17.123 58.41 25.767 84.488 25.767 18.452 0 35.563-4.327 50.709-13.04.044-.024.088-.049.132-.074l33.552-19.372c36.568-21.112 56.707-64.98 56.707-123.522 0-119.084-83.902-264.411-187.031-323.957zm-252.998 78.628c16.426-9.488 38.541-7.171 62.266 6.529 51.137 29.526 92.739 101.582 92.739 160.624 0 27.386-9.045 47.691-25.468 57.178l-4.708 2.719c5.544-11.377 8.455-25.434 8.455-41.57 0-62.229-43.846-138.171-97.74-169.289-13.987-8.075-27.627-12.584-40.261-13.466zm85.731 10.551v-2.166l27.554 15.906v13.458c-8.514-10.183-17.778-19.386-27.554-27.198zm61.107 33.113v31.82l-11.744-6.78c-4.821-8.156-10.118-16.02-15.81-23.454v-17.494zm-27.554-22.835v-31.816l27.554 15.907v31.816zm27.554 61.584v8.789c-1.885-4.133-3.897-8.229-6.028-12.269zm33.551-58.12v31.815l-27.551-15.906v-31.815zm-27.551-22.834v-31.817l27.551 15.907v31.816zm27.551 61.576v31.82l-27.551-15.906v-31.82zm0 38.748v31.805l-22.56-13.026c-1.461-4.985-3.13-9.968-4.991-14.922v-19.763zm-27.551 132.129v-18.578c2.016-3.131 3.791-6.524 5.319-10.16l22.232 12.834v31.81zm27.551 22.834v31.81l-27.551-15.907v-31.809zm-20.105-57.273c2.83-8.609 4.42-18.376 4.682-29.116l15.423 8.904v31.819zm4.669-36.051c-.311-11.259-2.012-22.923-4.907-34.652l20.343 11.746v31.817zm-18.115 59.7v7.33l-4.771-2.754c1.677-1.418 3.269-2.945 4.771-4.576zm-111.29 172.414c-9.819-5.669-18.114-19.969-18.114-31.227v-72.626l31.229 18.03-.001 78.4c0 9.304-5.215 11.984-13.114 7.423zm44.836-25.745c0 4.363-1.272 7.602-3.492 8.883l-18.249 10.541c.012-.363.019-.73.019-1.101l.001-78.4 21.721-12.546zm.001-84.174-21.721 12.547v-41.824c7.539 1.791 14.808 2.404 21.722 1.834zm-25.198-40.622c-1.521-.488-3.182-.218-4.472.723s-2.052 2.442-2.052 4.039v48.409l-31.229-18.03v-54.185c0-1.482-.658-2.889-1.796-3.838-42.192-35.224-72.82-96.879-72.824-146.604-.002-27.394 9.043-47.703 25.47-57.188s38.538-7.166 62.259 6.531c51.137 29.526 92.74 101.584 92.74 160.629.001 46.467-26.928 72.689-68.096 59.514zm164.254 121.915c-42.308-24.429-83.429-65.475-116.152-115.864.074-.044.147-.088.22-.132l31.03-17.922c.773-.447 1.533-.912 2.279-1.396l10.021 5.783v37.001c0 1.072.572 2.062 1.5 2.598l33.434 19.304c.078.05.159.097.242.14l33.322 19.239c.071.045.143.087.218.126l33.341 19.25c.066.042.133.081.203.117l33.446 19.311c1.973 1.141 4.5-.272 4.5-2.598v-33.547l29.054 16.772c.929.537 2.072.537 3 0 .928-.535 1.5-1.525 1.5-2.598v-33.547l29.054 16.773c.928.537 2.072.537 3 0 .928-.535 1.5-1.525 1.5-2.598v-154.96c0-1.072-.572-2.062-1.5-2.598l-32.054-18.507v-37.011c0-1.072-.572-2.062-1.5-2.598l-32.054-18.506v-37.011c0-1.072-.572-2.062-1.5-2.598l-33.495-19.339s0 0-.001 0l-100.711-58.146c-.929-.537-2.072-.537-3 0-.928.535-1.5 1.526-1.5 2.598v33.547l-29.054-16.773c-.928-.537-2.072-.537-3 0-.928.535-1.5 1.525-1.5 2.598v33.547l-29.054-16.772c-.929-.537-2.072-.537-3 0-.928.535-1.5 1.526-1.5 2.598v2.791c-4.082-2.96-8.243-5.673-12.465-8.111-6.663-3.847-13.248-6.885-19.683-9.106 21.741-58.218 81.686-88.5 166.846-39.337 100.37 57.946 182.024 199.377 182.022 315.272-.001 113.28-78.78 158.925-177.009 102.21zm-5.5-323.246v31.815l-27.552-15.907v-31.815zm-27.552-22.834v-31.817l27.552 15.908v31.815zm27.552 61.576v31.819l-27.552-15.906v-31.819zm0 38.747v31.808l-27.552-15.908v-31.806zm0 38.735v31.815l-27.552-15.906v-31.817zm0 38.743v31.818l-27.552-15.906v-31.818zm0 38.746v31.812l-27.552-15.907v-31.81zm0 38.739v31.811l-27.552-15.908v-31.81zm33.551-213.081v31.815l-27.552-15.907v-31.815zm-27.551-22.834v-31.815l27.552 15.908v31.814zm27.551 61.576v31.818l-27.552-15.906v-31.819zm0 38.746v31.81l-27.552-15.908v-31.808zm0 38.737v31.813l-27.551-15.906v-31.815zm0 38.74v31.817l-27.551-15.905v-31.818zm0 38.745v31.815l-27.551-15.906v-31.813zm0 38.742v31.812l-27.551-15.907v-31.811zm33.552-213.081v31.815l-27.551-15.907v-31.815zm-27.552-22.834v-31.814l27.551 15.907v31.814zm27.552 61.576v31.817l-27.551-15.906v-31.818zm0 38.745v31.812l-27.552-15.908v-31.81zm0 38.739v31.811l-27.552-15.906v-31.812zm0 38.738v31.816l-27.552-15.905v-31.817zm0 38.744v31.817l-27.552-15.907v-31.815zm-.001 38.744v31.812l-27.551-15.907v-31.812zm33.553-174.339v31.816l-27.552-15.906v-31.817zm-27.552-22.834v-31.813l27.553 15.907v31.814zm27.552 61.578v31.814l-27.552-15.908v-31.812zm0 38.741v31.809l-27.552-15.906v-31.81zm0 38.736v31.815l-27.552-15.905v-31.816zm.001 38.743v31.815l-27.553-15.906v-31.815zm33.554-96.848v31.816l-27.555-15.91v-31.814zm-27.555-22.835v-31.815l27.555 15.91v31.814zm27.555 61.578v31.806l-27.555-15.908v-31.808zm0 38.734v31.815l-27.555-15.908v-31.815zm30.172 84.078-5.309 3.065c19.166-23.217 29.437-57.076 29.438-98.556.002-117.806-82.999-261.567-185.022-320.468-35.928-20.742-70.39-28.776-100.082-23.783l4.868-2.811c.118-.057.233-.118.347-.184 33.352-19.331 77.901-14.864 125.435 12.579 100.372 57.955 182.031 199.396 182.031 315.296 0 54.819-18.363 95.611-51.706 114.862z"/></g></g><g/><g/><g/><g/><g/><g/><g/><g/><g/><g/><g/><g/><g/><g/><g/></svg>