<svg id="Layer_1" enable-background="new 0 0 501 501" height="512" viewBox="0 0 501 501" width="512" xmlns="http://www.w3.org/2000/svg"><g><path d="m245 11c-135.31 0-245 109.69-245 245 0 39.872 9.525 77.52 26.423 110.792l173.723 130.112c14.541 2.69 29.533 4.096 44.854 4.096 135.31 0 245-109.69 245-245s-109.69-245-245-245z" fill="#99e6fc"/><g><circle cx="245" cy="256" fill="#c8effe" r="200"/></g><g><circle cx="260.029" cy="136.278" fill="#fed402" r="16.231"/></g><g><circle cx="339.515" cy="292.023" fill="#fed402" r="16.231"/></g><g><circle cx="298.427" cy="58.457" fill="#fff" r="16.231"/></g><g><circle cx="49.457" cy="200.693" fill="#fff" r="16.231"/></g><g><circle cx="378.62" cy="373.96" fill="#fff" r="16.231"/></g><g><path d="m302.175 296.884-16.26 11.37-36.932 60.601c-.44 3.118-2.121 5.969-4.73 7.704v61.262l31.85-17.749c13.35-7.438 22.596-20.915 24.734-36.049l9.705-68.762c1.054-7.465-2.437-14.523-8.367-18.377z" fill="#fbac91"/><g><path d="m435.114 50.517c-11.072-8.138-26.644-5.76-34.781 5.312l-262.868 357.635c-8.138 11.072-5.759 26.644 5.312 34.781 11.072 8.138 26.644 5.76 34.781-5.312l262.868-357.634c8.138-11.072 5.76-26.644-5.312-34.782z" fill="#4f66d0"/><g><path d="m435.114 50.517c-2.969-2.182-6.263-3.601-9.648-4.306 4.595 8.245 4.278 18.756-1.678 26.858l-181.467 246.888v34.866l198.105-269.524c8.138-11.072 5.76-26.644-5.312-34.782z" fill="#af66da"/></g><g><path d="m294.575 294.045c-2.475-.349-4.925-.427-7.322-.256l-34.231 46.451-4.039 28.615c-.026.182-.07.36-.104.54l53.285-72.495c-2.227-1.447-4.785-2.459-7.589-2.855z" fill="#f99675"/></g></g><g><g><path d="m198.309 349.306c-15.658-.429-27.94-13.67-27.94-29.334v-13.654c0-62.81 44.437-116.844 106.065-128.971 15.84-3.117 31.203 7.425 33.903 23.452 2.602 15.446-8.018 30.052-23.387 33.077-34.331 6.756-59.086 36.857-59.086 71.846v14.848c0 16.145-13.31 29.181-29.555 28.736z" fill="#fbac91"/></g></g><g fill="#fbac91"><path d="m158.533 237.412-11.768 2.593-7.893 1.611-16.413 61.481h52.52v-41.32c0-11.033-6.805-20.478-16.446-24.365z"/><path d="m106.013 237.412-11.521 2.498-24.552 63.187h52.52v-41.32c-.001-11.033-6.805-20.478-16.447-24.365z"/><path d="m56.663 250.232c-7.247-.61-13.466 5.108-13.466 12.38v53.486h26.743v-45.826c0-9.007-5.474-16.735-13.277-20.04z"/></g><g><path d="m56.663 250.232c-2.605-1.104-5.47-1.715-8.478-1.715-12.015 0-21.755 9.74-21.755 21.755v45.826h16.956v-45.826c.001-9.007 5.475-16.735 13.277-20.04z" fill="#f99675"/></g><path d="m248.983 368.855c-.461 3.267-2.272 6.256-5.099 7.958-7.198 4.335-16.263-.861-16.263-9.164l-.138-73.066h-184.285v79.099c0 15.031 5.413 29.534 15.153 40.982 35.727 41.993 85.363 71.782 141.798 82.224v-10.081c0-15.068 8.159-28.955 21.321-36.29l54.635-30.447c13.35-7.438 22.596-20.915 24.734-36.049l4.244-30.071z" fill="#fbac91"/><path d="m55.576 411.383c-7.62-13.024-11.763-27.971-11.763-43.386v-73.414h-17.382v72.204c8.1 15.95 17.892 30.895 29.145 44.596z" fill="#f99675"/><g><path d="m106.01 237.419c-3.032-1.222-6.341-1.902-9.811-1.902-14.503 0-26.26 11.757-26.26 26.26v41.32c10.837 0 19.622-8.785 19.622-19.622v-21.699c0-11.032 6.808-20.47 16.449-24.357z" fill="#f99675"/></g><g><path d="m158.53 237.419c-3.032-1.222-6.341-1.902-9.811-1.902-14.503 0-26.26 11.757-26.26 26.26v41.32c10.837 0 19.622-8.785 19.622-19.622v-21.699c0-11.032 6.808-20.47 16.449-24.357z" fill="#f99675"/></g><g><path d="m435.114 50.517c-11.072-8.138-26.644-5.76-34.781 5.312l-52.103 70.886 16.369 2.471c4.214.636 7.845 3.305 9.709 7.137l11.399 23.421 54.719-74.446c8.138-11.071 5.76-26.643-5.312-34.781z" fill="#4f66d0"/></g><g><path d="m473.061 15.74-6.621 37.366c-.744 4.196.625 8.489 3.66 11.481l27.027 26.638c7.643 7.533 3.331 20.56-7.298 22.045l-37.583 5.249c-4.22.589-7.881 3.218-9.788 7.029l-16.982 33.936c-4.802 9.597-18.525 9.521-23.221-.128l-16.606-34.121c-1.865-3.832-5.496-6.501-9.709-7.137l-37.523-5.664c-10.611-1.602-14.779-14.676-7.054-22.124l27.32-26.337c3.068-2.958 4.484-7.235 3.787-11.44l-6.208-37.437c-1.756-10.587 9.39-18.591 18.861-13.545l33.491 17.844c3.761 2.004 8.267 2.029 12.05.067l33.686-17.475c9.526-4.941 20.583 3.186 18.711 13.753z" fill="#fed402"/></g><g><path d="m444.022 44.773-3.084 17.402c-.346 1.954.291 3.954 1.705 5.347l12.587 12.406c3.56 3.508 1.551 9.575-3.399 10.267l-17.503 2.445c-1.966.275-3.67 1.499-4.558 3.273l-7.909 15.805c-2.237 4.469-8.627 4.434-10.814-.06l-7.734-15.891c-.868-1.785-2.559-3.027-4.522-3.324l-17.475-2.638c-4.942-.746-6.883-6.835-3.285-10.304l12.723-12.266c1.429-1.377 2.088-3.37 1.764-5.328l-2.891-17.435c-.818-4.93 4.373-8.658 8.784-6.308l15.597 8.31c1.752.933 3.85.945 5.612.031l15.688-8.137c4.436-2.301 9.586 1.484 8.714 6.405z" fill="#fee903"/></g></g><g><g><path d="m433.004 209.865 2.183 5.906c6.26 16.94 19.615 30.295 36.555 36.555l5.906 2.183c3.884 1.435 3.884 6.93 0 8.365l-5.906 2.183c-16.94 6.26-30.295 19.615-36.555 36.555l-2.183 5.906c-1.435 3.884-6.93 3.884-8.365 0l-2.183-5.906c-6.26-16.94-19.615-30.295-36.555-36.555l-5.906-2.183c-3.884-1.435-3.884-6.93 0-8.365l5.906-2.183c16.94-6.26 30.295-19.615 36.555-36.555l2.183-5.906c1.435-3.884 6.929-3.884 8.365 0z" fill="#fed402"/></g><g><path d="m430.501 239.084.877 2.372c2.514 6.803 7.877 12.166 14.68 14.68l2.372.877c1.56.576 1.56 2.783 0 3.359l-2.372.877c-6.803 2.514-12.166 7.877-14.68 14.68l-.877 2.372c-.576 1.56-2.783 1.56-3.359 0l-.877-2.372c-2.514-6.803-7.877-12.166-14.68-14.68l-2.372-.877c-1.56-.576-1.56-2.783 0-3.359l2.372-.877c6.803-2.514 12.166-7.877 14.68-14.68l.877-2.372c.576-1.56 2.782-1.56 3.359 0z" fill="#fee903"/></g></g><g><g><path d="m221.406 33.736 1.851 5.01c4.991 13.505 15.638 24.152 29.143 29.143l5.01 1.851c3.017 1.115 3.017 5.383 0 6.498l-5.01 1.851c-13.505 4.991-24.152 15.638-29.143 29.143l-1.851 5.01c-1.115 3.017-5.383 3.017-6.498 0l-1.851-5.01c-4.991-13.505-15.638-24.152-29.143-29.143l-5.01-1.851c-3.017-1.115-3.017-5.383 0-6.498l5.01-1.851c13.505-4.991 24.152-15.638 29.143-29.143l1.851-5.01c1.115-3.018 5.383-3.018 6.498 0z" fill="#fee903"/></g><g><path d="m219.28 59.415.64 1.732c1.726 4.67 5.407 8.352 10.077 10.077l1.732.64c1.043.386 1.043 1.861 0 2.247l-1.732.64c-4.67 1.726-8.352 5.407-10.077 10.077l-.64 1.732c-.386 1.043-1.861 1.043-2.247 0l-.64-1.732c-1.726-4.67-5.407-8.352-10.077-10.077l-1.732-.64c-1.043-.386-1.043-1.861 0-2.247l1.732-.64c4.67-1.726 8.352-5.407 10.077-10.077l.64-1.732c.386-1.044 1.862-1.044 2.247 0z" fill="#fed402"/></g></g><g><g><path d="m147.311 109.371 3.344 9.048c6.011 16.266 18.835 29.089 35.1 35.1l9.048 3.344c2.839 1.049 2.839 5.065 0 6.115l-9.048 3.344c-16.266 6.011-29.089 18.835-35.1 35.1l-3.344 9.048c-1.049 2.839-5.065 2.839-6.115 0l-3.344-9.048c-6.011-16.266-18.835-29.089-35.1-35.1l-9.048-3.344c-2.839-1.049-2.839-5.065 0-6.115l9.048-3.344c16.266-6.011 29.089-18.835 35.1-35.1l3.344-9.048c1.05-2.839 5.066-2.839 6.115 0z" fill="#fff"/></g><g><path d="m145.409 140.825 1.263 3.418c2.271 6.145 7.115 10.989 13.26 13.26l3.418 1.263c1.073.396 1.073 1.914 0 2.31l-3.418 1.263c-6.145 2.271-10.989 7.115-13.26 13.26l-1.263 3.418c-.396 1.073-1.914 1.073-2.31 0l-1.263-3.418c-2.271-6.145-7.115-10.989-13.26-13.26l-3.418-1.263c-1.073-.396-1.073-1.914 0-2.31l3.418-1.263c6.145-2.271 10.989-7.115 13.26-13.26l1.263-3.418c.396-1.073 1.913-1.073 2.31 0z" fill="#fee903"/></g></g></g></svg>