<svg id="Capa_1" enable-background="new 0 0 512 512" viewBox="0 0 512 512" xmlns="http://www.w3.org/2000/svg"><g><g><path d="m507 350.84-.001-36.234-282.375 126.804 31.376 54.352z" fill="#004281"/><path d="m5 350.84.001-36.234 250.999 121.329v59.827z" fill="#0067c5"/><path d="m256 169.697-251 144.914 251 144.915 251-144.915z" fill="#b3dafe"/><path d="m67.746 278.379-.011-.003-.003 27.885.011.003c-.047 27.924 18.278 55.863 54.972 77.049 73.306 42.321 193.256 42.32 266.557-.001 36.647-21.158 54.977-49.051 54.977-76.948l.001-27.982-.01-.003z" fill="#60b7ff"/><path d="m389.268 355.331c73.301-42.319 73.301-111.571 0-153.893s-193.249-42.322-266.55 0-73.301 111.574 0 153.893 193.249 42.319 266.55 0z" fill="#b3dafe"/><path d="m304.457 194.443-24.232 13.991-24.232-13.991-24.232 13.991-24.231-13.991-96.928 55.961 24.232 13.99-24.232 13.991 24.232 13.99-24.232 13.99 96.928 55.961 24.231-13.99 24.232 13.99 24.232-13.99 24.232 13.99 96.927-55.961-24.232-13.99 24.232-13.99-24.232-13.99 24.232-13.991z" fill="#b3dafe"/><path d="m207.529 222.422.551-14.945-24.782.955-24.232 13.99.25 12.202 23.982 1.789 22.068.655z" fill="#ffd15b"/><path d="m304.457 334.347 1.986 15.945 22.245-1.955 24.232-13.99.066-17.242-24.298 3.251-21.668 1.48z" fill="#ffd15b"/><path d="m183.297 292.375-19.632 1.652-4.599 12.338 5.566 15.272 18.665-1.281 17.548-.781 6.684-13.21-6.365-14.117z" fill="#fe7d43"/><path d="m231.761 320.356-19.632 1.652-4.6 12.338 5.567 15.272 18.665-1.281 17.547-.781 6.684-13.21-6.365-14.117z" fill="#fe7d43"/><g fill="#ffd15b"><path d="m280.224 320.356-19.632 1.652-4.6 12.338 5.567 15.272 18.665-1.281 17.547-.781 6.685-13.21-6.365-14.117z"/><path d="m231.761 292.375-19.632 1.652-4.6 12.338 5.567 15.272 18.665-1.281 17.547-.781 6.685-13.21-6.366-14.117z"/><path d="m183.298 264.394-19.632 1.652-4.6 12.338 5.566 15.272 18.665-1.282 17.548-.78 6.684-13.21-6.365-14.117z"/><path d="m183.298 236.413-19.632 1.652-4.6 12.338 5.567 15.272 18.665-1.281 17.547-.781 6.684-13.21-6.365-14.117z"/><path d="m231.761 264.394-19.632 1.652-4.6 12.338 5.567 15.272 18.665-1.281 17.547-.781 6.685-13.21-6.366-14.117z"/><path d="m280.224 292.374-19.631 1.653-4.6 12.338 5.566 15.272 18.665-1.282 17.548-.78 6.684-13.21-6.365-14.117z"/><path d="m328.688 292.375-19.632 1.652-4.6 12.338 5.567 15.272 18.665-1.282 17.547-.78 6.685-13.21-6.366-14.117z"/><path d="m280.225 264.394-19.632 1.652-4.6 12.338 5.566 15.272 18.665-1.281 17.548-.781 6.684-13.21-6.365-14.117z"/><path d="m231.761 236.413-19.632 1.652-4.6 12.338 5.567 15.272 18.665-1.281 17.547-.781 6.685-13.21-6.366-14.117z"/></g><path d="m231.761 208.432-19.632 1.652-4.6 12.338 5.567 15.272 18.665-1.281 17.547-.78 6.685-13.211-6.365-14.117z" fill="#0ab69f"/><path d="m280.225 236.413-19.632 1.652-4.6 12.338 5.567 15.272 18.665-1.281 17.547-.78 6.684-13.211-6.365-14.117z" fill="#0ab69f"/><path d="m328.688 236.413-19.632 1.652-4.6 12.338 5.567 15.272 18.665-1.281 17.547-.78 6.685-13.211-6.366-14.117z" fill="#0ab69f"/><path d="m280.225 208.432-19.632 1.652-4.6 12.338 5.567 15.272 18.665-1.281 17.547-.78 6.684-13.211-6.365-14.117z" fill="#0ab69f"/><path d="m328.688 208.432-19.632 1.652-4.6 12.338 5.567 15.272 18.665-1.281 17.547-.78 6.685-13.211z" fill="#0ab69f"/><path d="m328.688 264.394-19.632 1.652-4.6 12.338 5.567 15.272 18.665-1.281 17.547-.78 6.685-13.211-6.366-14.117z" fill="#0ab69f"/><path d="m377.152 292.375-19.632 1.652-4.6 12.338 5.566 15.272 18.665-1.281 24.232-13.991z" fill="#0ab69f"/><path d="m377.152 264.394-19.632 1.653-4.6 12.338 5.567 15.272 18.665-1.282 24.232-13.99z" fill="#0ab69f"/><path d="m377.152 236.414-19.632 1.652-4.6 12.338 5.567 15.272 18.665-1.281 24.232-13.991z" fill="#0ab69f"/><path d="m183.297 320.356-17.715-.893-6.516 14.883 24.231 13.991 20.622 1.055 3.61-15.046-1.516-18.284z" fill="#fe7d43"/><path d="m159.066 250.403-1.967-14.03-22.265.04-24.232 13.99 24.232 13.991 22.217-1.164z" fill="#fe7d43"/><path d="m159.066 278.384-1.967-14.03-22.264.04-24.233 13.99 24.232 13.991 22.217-1.163z" fill="#fe7d43"/><path d="m159.066 306.365-1.967-14.03-22.265.04-24.232 13.99 24.232 13.991 22.217-1.164z" fill="#fe7d43"/><path d="m207.529 306.365-24.232 13.991 24.232 13.99 24.232-13.99z" fill="#fead8a"/><path d="m231.761 320.356 24.232 13.991 24.232-13.991-24.232-13.991z" fill="#fead8a"/><path d="m159.066 278.384-24.232 13.991 24.232 13.99 24.231-13.99z" fill="#fead8a"/><path d="m280.224 292.375 24.233 13.991 24.231-13.991-24.232-13.991z" fill="#fff0ad"/><path d="m159.066 250.403-24.232 13.991 24.232 13.99 24.232-13.99z" fill="#fead8a"/><path d="m280.224 264.394 24.232 13.99 24.232-13.99-24.232-13.991z" fill="#fff0ad"/><path d="m280.225 320.356 24.232 13.991 24.231-13.991-24.231-13.99z" fill="#fff0ad"/><path d="m207.529 278.384-24.232 13.991 24.232 13.99 24.232-13.99z" fill="#fead8a"/><path d="m328.688 236.413-24.232-13.991-24.232 13.991 24.232 13.99z" fill="#5de1c4"/><path d="m231.761 292.375 24.232 13.99 24.231-13.99-24.231-13.991z" fill="#fff0ad"/><path d="m280.224 236.413-24.231-13.991-24.232 13.991 24.232 13.99z" fill="#fff0ad"/><path d="m231.761 236.413-24.232-13.991-24.231 13.991 24.231 13.99z" fill="#fff0ad"/><path d="m231.761 264.394 24.232 13.99 24.231-13.99-24.231-13.991z" fill="#fff0ad"/><path d="m207.529 250.403-24.231 13.991 24.231 13.99 24.232-13.99z" fill="#fff0ad"/><path d="m255.993 334.347-24.232 13.99 24.232 13.991 22.356-12.908-12.637 7.296 12.637-7.296 1.876-1.083z" fill="#fead8a"/><path d="m231.574 348.445.187-.108z" fill="#fff0ad"/><path d="m280.225 348.337 24.232 13.991 24.231-13.991-24.231-13.99z" fill="#fead8a"/><path d="m207.529 334.346-24.232 13.991 24.233 13.99 24.044-13.882.187-.108z" fill="#fead8a"/><path d="m352.919 250.403 24.232-13.99-24.231-13.991-24.232 13.991z" fill="#5de1c4"/><path d="m352.919 250.403-24.231 13.991 24.232 13.991 24.232-13.991z" fill="#5de1c4"/><path d="m159.066 306.365-24.232 13.991 24.232 13.99 24.231-13.99z" fill="#fead8a"/><path d="m328.688 320.356 24.232 13.991 24.232-13.991-24.232-13.99z" fill="#fff0ad"/><path d="m328.688 292.375 24.232 13.991 24.232-13.991-24.232-13.99z" fill="#fff0ad"/><path d="m255.993 222.422 24.232-13.99-24.232-13.991-19.443 11.226 9.957-5.749-9.957 5.749-4.789 2.765z" fill="#5de1c4"/><path d="m231.761 208.432-24.232-13.991-24.231 13.991 24.231 13.99z" fill="#fff0ad"/><path d="m328.688 208.432-24.232-13.99-24.231 13.99 24.231 13.99z" fill="#5de1c4"/><path d="m183.298 236.413-24.232-13.991-24.232 13.991 24.232 13.99z" fill="#fff0ad"/><path d="m507 314.611-.002-72.457-43.499 6.556 12.125 84.018z" fill="#0055a3"/><path d="m444.248 314.611.002-72.457 31.374 4.579v85.995z" fill="#0573ce"/><path d="m287.376 441.41-.002-72.458-43.499 6.556 12.125 84.018z" fill="#0055a3"/><path d="m224.624 441.41.002-72.458 31.374 4.58v85.994z" fill="#0573ce"/><path d="m5 314.611.002-72.457 43.499 6.556-12.125 84.018z" fill="#0573ce"/><path d="m67.752 314.611-.002-72.457-31.374 4.579v85.995z" fill="#0055a3"/><path d="m444.248 242.152 31.374-18.114 31.374 18.114-31.372 18.117z" fill="#82aee3"/><path d="m224.624 368.951 31.374-18.115 31.374 18.115-31.372 18.116z" fill="#82aee3"/><path d="m67.752 242.152-31.374-18.114-31.374 18.114 31.372 18.117z" fill="#82aee3"/><path d="m170.499 166.29-36.031 80.589-36.031-38.985 18.016-10.401v-77.631l36.031-20.803v77.632z" fill="#60b7ff"/><path d="m341.501 166.29 36.031 80.589 36.031-38.985-18.016-10.401v-77.631l-36.031-20.803v77.632z" fill="#60b7ff"/><path d="m284.506 148.097-57.012.205v87.349c0 4.195 2.76 8.38 8.287 11.571 11.098 6.407 29.146 6.375 40.313-.072 5.606-3.237 8.412-7.475 8.412-11.704z" fill="#b3dafe"/><path d="m298.71 119.159-85.438.308v81.667c0 6.286 4.137 12.559 12.418 17.34 16.631 9.602 43.679 9.553 60.414-.108 8.401-4.851 12.606-11.202 12.606-17.539z" fill="#c4e2ff"/><path d="m318.75 122.323v-69.856l-68.591 26.112 5.841 79.973z" fill="#0055a3"/><path d="m193.25 122.323v-69.856l62.75 25.526v80.559z" fill="#0573ce"/><path d="m256 16.238-62.75 36.229 62.75 36.229 62.75-36.229z" fill="#82aee3"/></g><g><g><path d="m512 314.533-.002-72.213c.064-1.854-.915-3.603-2.532-4.517l-31.34-18.095c-1.547-.894-3.453-.894-5 0l-31.315 18.081c-2.347 1.31-2.553 3.851-2.522 3.751-.011.086-.019.172-.025.259-5.681-10.019-13.74-19.529-24.059-28.314l2.03-2.197c1.032-1.116 1.5-2.641 1.271-4.144-.228-1.503-1.127-2.82-2.443-3.58l-15.515-8.958v-74.745c0-1.786-.953-3.437-2.5-4.33l-36.031-20.802c-1.547-.894-3.453-.894-5 0-1.547.893-2.5 2.544-2.5 4.33v68.971l-10.516-6.071c-1.875-1.083-4.238-.836-5.849.617-1.609 1.452-2.101 3.775-1.216 5.754l3.381 7.562c-11.689-3.29-23.953-5.887-36.607-7.748v-31.364l17.54-10.127c1.547-.893 2.5-2.544 2.5-4.33v-69.856c0-1.786-.953-3.437-2.5-4.33l-62.75-36.229c-1.547-.894-3.453-.894-5 0l-62.75 36.229c-1.547.893-2.5 2.544-2.5 4.33v69.856c0 1.786.953 3.437 2.5 4.33l17.522 10.117v31.375c-12.647 1.859-24.904 4.455-36.588 7.743l3.379-7.558c.885-1.979.394-4.302-1.216-5.754-1.609-1.452-3.971-1.701-5.849-.617l-10.516 6.071v-68.971c0-1.786-.953-3.437-2.5-4.33-1.547-.894-3.453-.894-5 0l-36.031 20.802c-1.547.893-2.5 2.544-2.5 4.33v74.745l-15.515 8.958c-1.316.76-2.215 2.077-2.443 3.58-.228 1.502.24 3.027 1.271 4.144l2.024 2.19c-10.313 8.778-18.369 18.281-24.051 28.293-.127-1.675-1.096-3.164-2.524-3.97l-31.336-18.093c-1.547-.894-3.453-.894-5 0l-31.304 18.074c-1.595.885-2.571 2.569-2.571 4.371l-.002 108.687c0 1.786.953 3.437 2.5 4.33l251 144.922c.773.447 1.637.67 2.5.67s1.727-.223 2.5-.67l251-144.922c1.547-.893 2.5-2.544 2.5-4.33 0 0 .001-36.239 0-36.307zm-501.998-63.721 21.374 12.343v60.911l-21.375-12.341zm52.748.002s.064 59.135.188 60.803l-21.563 12.45v-60.912zm1.802 71.418c2.289 9.93 6.728 19.527 13.182 28.599l-31.358-18.104zm8.384-11.063c9.06 17.567 25.456 33.582 48.279 46.765 27.001 15.586 60.959 25.973 98.41 30.128l-.001 19.94c-59.64-6.789-141.962-38.07-146.688-96.833zm43.668-4.803 18.23-10.526 18.231 10.526-18.232 10.526zm14.192-56.094c2.425 2.624 6.767 1.935 8.236-1.353l2.352-5.26 11.682 6.745-18.232 10.526-18.229-10.525 9.334-5.389zm172.914-49.445v-2.486l.746-.431 18.23 10.525-18.229 10.524-6.498-3.751c3.76-4.314 5.751-9.215 5.751-14.381zm43.207 21.598-18.229 10.525-18.231-10.526 18.229-10.525zm19.147 11.054 2.087 4.667-15.231 8.793-18.232-10.526 18.229-10.525zm19.992 11.543 9.328 5.383-18.23 10.526-18.234-10.527 11.693-6.751 2.355 5.267c1.469 3.287 5.81 3.978 8.236 1.353zm-8.903 71.869-18.232-10.526 18.232-10.526 18.232 10.527zm-24.233 13.99-18.231-10.526 18.232-10.526 18.232 10.526zm-24.232 13.99-18.231-10.526 18.232-10.526 18.231 10.526zm-96.927.001-18.232-10.526 18.232-10.526 18.232 10.526zm-13.343-125.27c1.251.978 2.611 1.911 4.076 2.792v5.206l-8.964-5.175zm74.968-.106 5.071 2.928-8.951 5.168v-5.429c1.389-.846 2.683-1.736 3.88-2.667zm-61.625 48.363 18.231 10.526-18.232 10.526-18.231-10.526zm-24.231 7.061-18.232-10.526 18.232-10.526 18.232 10.526zm48.294-17.902c1.736 0 3.472-.083 5.192-.25l13.208 7.626-18.232 10.526-18.231-10.526 13.162-7.599c1.624.149 3.262.223 4.901.223zm42.632 21.366-18.232 10.526-18.232-10.526 18.232-10.526zm-12.231-13.99 18.232-10.526 18.232 10.526-18.232 10.526zm18.231 17.455 18.232 10.526-18.232 10.526-18.232-10.526zm-78.695 10.526-18.232 10.526-18.231-10.526 18.232-10.526zm6 3.464 18.232 10.526-18.232 10.526-18.232-10.526zm6-3.464 18.232-10.526 18.232 10.526-18.232 10.526zm42.464 3.464 18.232 10.526-18.232 10.526-18.232-10.526zm24.232 13.99 18.232 10.526-18.232 10.526-18.232-10.526zm6-3.464 18.232-10.526 18.232 10.526-18.232 10.526zm24.232-13.99 18.232-10.526 18.232 10.526-18.232 10.526zm-6-3.464-18.232-10.526 18.232-10.526 18.232 10.526zm5.999-24.517 18.232-10.526 18.232 10.526-18.232 10.526zm-6-3.464-18.232-10.526 18.232-10.526 18.232 10.526zm-24.232-13.99-15.198-8.775c.164-.891.248-1.799.248-2.718v-.927l14.951-8.632 18.231 10.526zm-17.442-3.142 11.442 6.606-18.232 10.526-10.17-5.871c3.062-.89 5.948-2.083 8.539-3.578 3.732-2.155 6.574-4.768 8.421-7.683zm-55.253 17.132-18.232-10.526 11.365-6.561c1.824 2.932 4.655 5.556 8.386 7.71 2.589 1.495 5.48 2.682 8.55 3.564zm-9.267-26.402v1.124c0 .854.072 1.696.214 2.525l-15.178 8.763-18.232-10.526 18.232-10.526zm-20.965 15.876-18.232 10.526-18.232-10.526 18.232-10.526zm-24.231 13.99-18.232 10.526-18.232-10.526 18.232-10.526zm6 3.465 18.232 10.526-18.232 10.526-18.232-10.526zm-6 24.516-18.232 10.526-18.232-10.526 18.232-10.526zm6 3.464 18.231 10.526-18.232 10.526-18.231-10.526zm24.231 13.99 18.232 10.526-18.232 10.526-18.232-10.526zm30.232 10.526 18.232-10.526 18.232 10.526-18.232 10.526zm42.464 3.465 18.232 10.526-18.232 10.526-18.232-10.526zm24.232 13.99 18.231 10.525-18.232 10.526-18.23-10.526zm72.697-48.898-18.233-10.527 18.232-10.526 18.233 10.527zm-97.648-53.465c0 2.517-2.155 5.204-5.912 7.374-9.604 5.546-25.776 5.578-35.313.072-3.678-2.123-5.787-4.762-5.787-7.241v-8.659c7.184 2.467 15.203 3.7 23.233 3.7 8.209 0 16.429-1.289 23.778-3.864v8.618zm-65.638-20.147-6.338 3.659-18.232-10.526 18.228-10.524.747.431v2.794c-.001 5.092 1.937 9.918 5.595 14.166zm-30.57-3.402 18.232 10.526-18.232 10.526-18.231-10.526zm-24.232 13.99 18.231 10.526-18.232 10.526-15.22-8.787 2.095-4.687zm-24.231 41.971 18.23 10.525-18.232 10.526-18.229-10.526zm24.231 41.97 18.231 10.526-18.232 10.526-18.231-10.526zm24.231 13.99 18.232 10.526-18.233 10.527-18.231-10.526zm24.232 13.99 18.233 10.527-18.237 10.525-18.23-10.525zm48.464.001 18.232 10.526-6.276 3.625-9.447-5.455c-1.547-.894-3.453-.894-5 0l-9.454 5.459-6.285-3.63zm.009 18.8 21.374 12.341-21.376 12.342-21.373-12.342zm-36.377 61.454v14.687l-36.063-20.821c11.558 2.705 23.621 4.762 36.063 6.134zm9.999 20.461.002-60.914 21.374 12.343v60.912zm31.376-48.571 21.374-12.341.002 60.912-21.376 12.341zm31.376 42.797v-14.689c12.445-1.373 24.511-3.432 36.073-6.138zm-.001-24.751-.001-19.939c37.438-4.154 71.389-14.542 98.391-30.128 22.83-13.181 39.23-29.2 48.291-46.774-4.727 58.78-87.779 90.134-146.681 96.841zm178.249-144.845v60.912l-21.571-12.455c.13-1.742.197-3.492.197-5.249v-55.551zm-23.185 59.072 18.185 10.5-31.382 18.118c6.46-9.078 10.905-18.681 13.197-28.618zm33.185 1.839v-60.911l21.374-12.341.002 60.911zm-4.998-94.255 21.374 12.341-21.376 12.342-21.373-12.342zm-36.382 48.569c0 .084.002.168.006.251v15.378c-5.703 22.121-23.488 42.564-51.484 58.728-26.131 15.083-59.035 25.175-95.392 29.286v-12.905c.064-1.864-.924-3.61-2.535-4.519l-15.89-9.175 6.277-3.625 22.73 13.124c.464.268.982.402 1.5.402s1.036-.134 1.5-.402l96.93-55.96c.928-.536 1.5-1.526 1.5-2.598s-.572-2.062-1.5-2.598l-19.73-11.392 19.73-11.392c.928-.536 1.5-1.526 1.5-2.598s-.572-2.062-1.5-2.598l-19.73-11.392 19.73-11.392c.928-.536 1.5-1.526 1.5-2.599 0-1.072-.572-2.062-1.5-2.598l-12.653-7.302 18.179-19.669c20.185 17.078 30.83 36.912 30.832 57.545zm-82.227-97.359c1.547.894 3.453.894 5 0 1.547-.893 2.5-2.544 2.5-4.33v-68.971l26.031 15.029v74.745c0 1.786.953 3.437 2.5 4.33l12.596 7.273-26.64 28.824-26.641-59.585zm-11.311 6.923 16.183 36.196-55.934-32.293c-.689-.397-1.495-.5-2.245-.308v-13.284c14.674 2.231 28.776 5.485 41.996 9.689zm-86.706-36.897v-60.619l54.75-31.61v60.618zm-3-129.035 54.75 31.61-54.75 31.61-54.75-31.61zm-57.75 36.806 54.75 31.61v60.619l-54.75-31.61zm55.25 104.064c.773.447 1.637.67 2.5.67s1.727-.223 2.5-.67l35.21-20.329v58.273c0 4.756-3.589 9.447-10.105 13.209-15.07 8.699-40.446 8.75-55.414.108-6.396-3.693-9.918-8.313-9.918-13.01v-58.591zm-45.228 15.374v13.284c-.751-.193-1.559-.091-2.248.307l-55.908 32.28 16.18-36.188c13.216-4.202 27.311-7.454 41.976-9.683zm-89.319 23.567c1.547-.893 2.5-2.544 2.5-4.33v-74.745l26.031-15.029v68.971c0 1.786.953 3.437 2.5 4.33 1.547.894 3.453.894 5 0l4.653-2.687-26.641 59.585-26.64-28.824zm-15.37 19.005 18.18 19.67-12.658 7.308c-.928.536-1.5 1.526-1.5 2.598s.572 2.062 1.5 2.598l19.73 11.392-19.73 11.392c-.928.536-1.5 1.526-1.5 2.598s.572 2.062 1.5 2.598l19.73 11.392-19.73 11.392c-.928.536-1.5 1.526-1.5 2.598s.572 2.062 1.5 2.598l96.92 55.96c.464.268.982.402 1.5.402s1.036-.134 1.5-.402l22.74-13.125 6.284 3.629-15.856 9.155c-1.614.898-2.566 2.593-2.566 4.369v13.071c-36.37-4.111-69.281-14.204-95.41-29.286-28.002-16.175-45.786-36.624-51.482-58.746l.002-14.531h.016v-2.095c.343-20.268 10.97-39.735 30.83-56.535zm-67.205 8.983 21.374 12.341-21.376 12.342-21.373-12.342zm-26.378 93.461c134.527 77.67-16.745-8.162 241 139.141v24.689l-241-139.149zm251 163.83v-24.689l240.999-139.141.001 24.681z" fill="#072f75"/></g></g></g><g/><g/><g/><g/><g/><g/><g/><g/><g/><g/><g/><g/><g/><g/><g/></svg>